<?xml version="1.0" encoding="UTF-8"?>
<svg width="22px" height="17px" viewBox="0 0 22 17" version="1.1" xmlns="http://www.w3.org/2000/svg" xmlns:xlink="http://www.w3.org/1999/xlink">
    <!-- Generator: Sketch 48.2 (47327) - http://www.bohemiancoding.com/sketch -->
    <title>books-stack-of-three</title>
    <desc>Created with Sketch.</desc>
    <defs></defs>
    <g id="Page-1" stroke="none" stroke-width="1" fill="none" fill-rule="evenodd">
        <g id="books-stack-of-three" fill="#FFFFFF" fill-rule="nonzero">
            <path d="M20.4305297,5.13562316 C20.3415659,4.47359527 20.3290256,3.33334225 20.9501966,2.95046318 C20.9612924,2.94344384 20.9695651,2.93330479 20.9792822,2.9245956 C21.487131,2.76380069 21.8385873,2.53814186 21.562701,2.23449035 L14.0712252,0 L1.94082783,1.66949836 C1.94082783,1.66949836 0.551744789,1.86603992 0.675834544,4.00238948 C0.743197554,5.16513039 1.11159312,5.73616681 1.43376689,6.01720045 L0.438356954,6.31415758 C0.162076694,6.61780909 0.513467367,6.84353292 1.02138184,7.00406785 C1.03103326,7.01303701 1.0391746,7.02311107 1.05046743,7.03013041 C1.67124448,7.41333445 1.6592951,8.55345748 1.570003,9.21561536 C-0.660132834,9.84248154 0.140410229,10.0467574 0.140410229,10.0467574 L0.629612752,10.1639414 C0.28550989,10.4717525 -0.0562293572,11.0554627 0.00778519923,12.1625039 C0.131940611,14.2984635 1.2729098,14.4458696 1.2729098,14.4458696 L9.21097742,17 L21.1925327,14.1271395 C21.1925327,14.1271395 21.9933384,13.9225387 19.7626116,13.2956076 C19.6729256,12.6344896 19.660451,11.4944965 20.2826725,11.1103176 C20.2940966,11.1034932 20.3024349,11.0931592 20.3116924,11.08458 C20.8196069,10.9237851 21.1707349,10.6983212 20.8947829,10.3946697 L20.3739999,10.2390093 C20.7213199,10.0316788 21.2430221,9.48982463 21.3247638,8.08231669 C21.3811623,7.11416752 21.1260232,6.54716072 20.8307027,6.21335204 L21.8600568,5.96676518 C21.8601225,5.96715514 22.6609281,5.76255434 20.4305297,5.13562316 Z M10.4086734,5.10826072 L12.4235233,4.69834418 L19.2325711,3.31319414 L20.2470213,3.10664352 C19.9228778,3.69392842 19.9364686,4.49764302 19.9901095,5.01421455 C20.0018619,5.13107358 20.0153871,5.23779357 20.0285183,5.31890596 L18.9181448,5.59220532 L10.3239772,7.70860175 L10.4086734,5.10826072 Z M1.75370836,7.18696069 L2.76802722,7.39351131 L9.30716339,8.72419647 L9.87843586,8.8400156 L11.5915967,9.1885779 L11.6760959,11.7889839 L2.84313763,9.61357302 L1.97234269,9.39935312 C1.9851456,9.31811074 1.99867073,9.21152074 2.01094839,9.09433674 C2.06426103,8.57815517 2.07811444,7.77424559 1.75370836,7.18696069 Z M1.35964132,3.89956913 C1.34736365,3.33132744 1.44965563,2.920371 1.65640624,2.7114806 C1.78798077,2.57811311 1.9432571,2.55036072 2.04975106,2.55036072 C2.10601822,2.55036072 2.14652794,2.55809499 2.14928549,2.55809499 L7.37595912,4.24488173 L9.9836167,5.08648777 L9.89806699,7.70502709 L2.58254914,5.67474758 L2.19649212,5.56770262 C2.18231044,5.56373799 2.16307324,5.56100825 2.148235,5.56035831 C2.11809891,5.55821351 1.39483291,5.49230969 1.35964132,3.89956913 Z M9.22988633,15.8655314 L1.52850844,13.728142 C1.51426109,13.7240474 1.49522087,13.7213176 1.48038262,13.7206027 C1.44972129,13.7185879 0.726127006,13.6527491 0.691132382,12.0603985 C0.67865775,11.4914418 0.781474976,11.0808754 0.987831644,10.87179 C1.11973446,10.7384225 1.27507645,10.7106701 1.38137344,10.7106701 C1.43777191,10.7106701 1.47815032,10.7181444 1.48110484,10.7181444 C1.48110484,10.7181444 1.48143312,10.7181444 1.48110484,10.7181444 L9.3149108,13.2469271 L9.22988633,15.8655314 Z M19.3215349,13.1743289 C19.3336813,13.2915779 19.3472064,13.3981029 19.3603376,13.4793453 L9.65559955,15.8692361 L9.74042704,13.2688301 L11.8152209,12.8465647 L12.1216372,12.9199428 L13.2700912,12.5504525 L18.5639965,11.4735685 L19.5788406,11.2668879 C19.2543689,11.8541078 19.2678284,12.6581474 19.3215349,13.1743289 Z M19.8561057,9.64028551 C19.8384443,9.64067548 19.8207828,9.64301526 19.8041719,9.64821477 L19.0722393,9.85106074 L12.1029909,11.7855392 L12.0177695,9.16699992 L14.3043038,8.42873419 L19.8408735,6.64133689 C19.8415958,6.64101192 20.1321234,6.57712291 20.3453739,6.79179777 C20.5517962,7.00068817 20.6542195,7.41164461 20.6421388,7.9798863 C20.606028,9.57210691 19.8824338,9.6382707 19.8561057,9.64028551 Z" id="Shape"></path>
        </g>
    </g>
</svg>